<?xml version="1.0" encoding="UTF-8"?>
<!DOCTYPE svg PUBLIC "-//W3C//DTD SVG 1.1//EN" "http://www.w3.org/Graphics/SVG/1.1/DTD/svg11.dtd">
<!-- Creator: CorelDRAW X8 -->
<svg xmlns="http://www.w3.org/2000/svg" xml:space="preserve" width="2447px" height="900px" version="1.1" style="shape-rendering:geometricPrecision; text-rendering:geometricPrecision; image-rendering:optimizeQuality; fill-rule:evenodd; clip-rule:evenodd"
viewBox="0 0 2447 900"
 xmlns:xlink="http://www.w3.org/1999/xlink">
 <defs>
  <style type="text/css">
   <![CDATA[
    .fil3 {fill:#00BFB9}
    .fil4 {fill:#FF0088}
    .fil1 {fill:white}
    .fil2 {fill:#00BFB9;fill-rule:nonzero}
    .fil0 {fill:#FEFEFE;fill-rule:nonzero}
   ]]>
  </style>
 </defs>
 <g id="Capa_x0020_1">
  <metadata id="CorelCorpID_0Corel-Layer"/>
  <g id="_2429379267728">
   <path class="fil0" d="M274 764l26 0c15,0 25,1 31,2 7,2 13,6 18,12 5,6 7,13 7,22 0,8 -2,16 -7,21 -4,6 -11,10 -19,12 -6,1 -17,2 -34,2l-9 0 0 62 -13 0 0 -133zm13 13l0 45 22 1c9,0 16,-1 20,-3 4,-2 8,-4 10,-8 3,-4 4,-8 4,-12 0,-5 -1,-9 -4,-13 -2,-3 -5,-6 -9,-7 -4,-2 -11,-3 -20,-3l-23 0zm140 -13l27 0c14,0 24,1 30,2 8,2 14,6 19,12 5,6 7,13 7,22 0,7 -1,13 -5,18 -3,6 -8,10 -14,13 -7,3 -15,4 -27,4l48 62 -16 0 -48 -62 -7 0 0 62 -14 0 0 -133zm14 13l0 45 22 0c9,0 16,0 20,-2 4,-2 8,-4 10,-8 2,-4 4,-8 4,-13 0,-4 -2,-8 -4,-12 -2,-3 -6,-6 -10,-7 -3,-2 -10,-3 -19,-3l-23 0zm204 -16c20,0 37,7 51,20 13,13 20,30 20,49 0,20 -7,36 -20,50 -14,13 -30,20 -50,20 -19,0 -36,-7 -49,-20 -14,-14 -20,-30 -20,-49 0,-13 3,-24 9,-35 6,-11 14,-20 25,-26 11,-6 22,-9 34,-9zm1 13c-10,0 -19,3 -28,8 -9,5 -16,12 -20,20 -5,9 -8,18 -8,29 0,16 6,29 17,40 10,11 24,16 39,16 10,0 20,-2 28,-7 9,-5 16,-12 21,-21 5,-8 7,-18 7,-29 0,-10 -2,-20 -7,-28 -5,-8 -12,-15 -21,-20 -9,-5 -18,-8 -28,-8zm6 -48l20 0 -27 28 -12 0 19 -28zm127 38l16 0 31 52 32 -52 16 0 -40 64 42 69 -15 0 -35 -56 -34 56 -16 0 43 -69 -40 -64zm161 0l14 0 0 133 -14 0 0 -133zm82 133l18 -133 3 0 54 109 53 -109 2 0 20 133 -13 0 -14 -95 -46 95 -4 0 -47 -96 -13 96 -13 0zm273 -133l62 133 -14 0 -21 -44 -57 0 -21 44 -15 0 63 -133 3 0zm-1 28l-23 48 45 0 -22 -48zm121 105l19 -133 3 0 53 109 54 -109 2 0 19 133 -13 0 -13 -95 -47 95 -4 0 -47 -96 -13 96 -13 0zm220 -133l75 0 0 13 -62 0 0 42 62 0 0 13 -62 0 0 52 62 0 0 13 -75 0 0 -133zm142 133l0 -133 3 0 88 102 0 -102 13 0 0 133 -3 0 -87 -101 0 101 -14 0zm167 -120l0 -13 72 0 0 13 -29 0 0 120 -13 0 0 -120 -30 0zm136 -13l75 0 0 13 -62 0 0 42 62 0 0 13 -62 0 0 52 62 0 0 13 -75 0 0 -133z"/>
   <rect class="fil1" y="637" width="2447.19" height="10.2116"/>
   <g>
    <path class="fil2" d="M993 530l0 -260 -57 0 0 -50 57 0 0 -108c0,-25 2,-44 6,-56 7,-17 17,-30 33,-41 15,-10 37,-15 65,-15 18,0 28,0 50,4l0 59c-13,-3 -26,-4 -38,-4 -19,0 -33,4 -41,12 -8,9 -12,24 -12,47 0,24 0,58 0,102l74 0 0 50 -74 0c1,67 1,153 1,260l-64 0z"/>
    <path class="fil2" d="M1325 473l9 57c-18,3 -34,5 -48,5 -23,0 -41,-3 -54,-11 -13,-7 -22,-17 -27,-29 -5,-12 -8,-37 -8,-75l0 -150 -46 0 0 -50 46 0 0 -18 0 -50 0 -144 64 0 0 144 0 50 0 18 84 0 0 50 -84 0 0 153c0,19 1,30 4,36 2,5 5,9 10,12 6,3 13,5 22,5 7,0 17,-1 28,-3z"/>
    <polygon class="fil2" points="1425,530 1425,9 1494,9 1494,224 1764,224 1764,9 1833,9 1833,530 1764,530 1764,285 1494,285 1494,530 "/>
    <polygon class="fil2" points="822,530 822,178 886,178 886,530 "/>
    <polygon class="fil2" points="1924,530 1924,178 1988,178 1988,530 "/>
    <polygon class="fil2" points="2081,530 2081,178 2145,178 2145,530 "/>
    <polygon class="fil3" points="752,74 752,165 685,165 685,74 340,74 340,463 651,463 651,530 273,530 273,463 273,463 273,18 273,18 273,7 752,7 752,10 "/>
   </g>
   <g>
    <polygon class="fil4" points="752,265 752,326 752,326 752,326 752,429 752,531 752,583 685,583 685,531 685,429 685,326 482,326 482,326 482,265 482,259 752,259 "/>
    <path class="fil4" d="M854 1c34,0 62,28 62,62 0,34 -28,61 -62,61 -34,0 -61,-27 -61,-61 0,-34 27,-62 61,-62z"/>
    <path class="fil4" d="M1956 1c34,0 61,28 61,62 0,34 -27,61 -61,61 -34,0 -61,-27 -61,-61 0,-34 27,-62 61,-62z"/>
    <path class="fil4" d="M2113 1c34,0 61,28 61,62 0,34 -27,61 -61,61 -34,0 -61,-27 -61,-61 0,-34 27,-62 61,-62z"/>
   </g>
  </g>
 </g>
</svg>
